<svg width="599" height="371" viewBox="0 0 599 371" fill="none" xmlns="http://www.w3.org/2000/svg">
<path d="M36.8652 132.008C35.8887 135.263 35.4004 138.437 35.4004 141.529C35.4004 147.958 36.2549 154.509 37.9639 161.183C39.6729 167.774 41.9515 173.878 44.7998 179.493L46.6309 183.155C54.4434 198.536 59.6517 208.993 62.2559 214.527C65.1042 220.468 67.3828 227.223 69.0918 234.791C70.8008 242.278 71.6553 249.765 71.6553 257.252C71.6553 262.46 70.9229 267.75 69.458 273.121C68.0745 278.492 66.0807 283.538 63.4766 288.258C60.7096 293.222 57.0475 297.169 52.4902 300.099C47.9329 303.028 42.9281 304.493 37.4756 304.493C31.4535 304.493 26.3265 303.395 22.0947 301.197C19.4092 299.895 18.0664 298.186 18.0664 296.07C18.0664 294.117 18.5547 292.53 19.5312 291.31C20.5078 290.007 21.8913 289.356 23.6816 289.356C25.6348 289.356 28.1169 289.967 31.1279 291.188C34.0576 292.49 36.1735 293.141 37.4756 293.141C40.568 293.141 43.4163 291.757 46.0205 288.99C48.7061 286.223 50.8219 282.643 52.3682 278.248C53.833 274.179 54.9316 270.151 55.6641 266.163C56.4779 262.175 56.8848 258.676 56.8848 255.665C56.8848 248.585 55.7454 241.098 53.4668 233.204C51.1882 225.31 48.1364 217.579 44.3115 210.011L40.7715 203.053C36.7839 195.322 33.5693 188.811 31.1279 183.521C28.6865 178.15 26.5706 172.494 24.7803 166.554C22.3389 158.578 21.1182 150.847 21.1182 143.36C21.1182 137.338 22.1354 131.682 24.1699 126.393C26.2044 121.021 29.3376 116.464 33.5693 112.721C37.8011 108.814 42.9281 106.861 48.9502 106.861C51.9613 106.861 54.891 107.716 57.7393 109.425C60.5876 111.134 62.5814 113.29 63.7207 115.895L59.4482 121.266C55.2979 121.266 52.0426 120.452 49.6826 118.824C46.7529 119.15 44.1081 120.574 41.748 123.097C39.4694 125.619 37.8418 128.59 36.8652 132.008ZM410.278 292.286V293.751L404.053 298.023L397.461 298.268C393.473 298.512 390.015 298.634 387.085 298.634C372.681 298.634 365.479 296.152 365.479 291.188C365.479 287.2 368.001 285.206 373.047 285.206C374.186 285.206 375.163 285.247 375.977 285.328L378.296 285.572C379.598 285.572 380.534 285.165 381.104 284.352C381.673 283.456 381.958 281.91 381.958 279.713C381.958 266.204 381.185 246.917 379.639 221.852C378.092 196.868 377.319 177.621 377.319 164.112L377.563 151.295L377.808 138.6C377.808 133.635 377.604 128.997 377.197 124.684C375 125.416 373.047 125.782 371.338 125.782C367.432 125.782 365.479 123.788 365.479 119.801C365.479 117.848 366.699 116.139 369.141 114.674C371.582 113.128 374.756 111.988 378.662 111.256C385.417 110.035 391.317 109.425 396.362 109.425C398.315 109.425 400.024 110.117 401.489 111.5C402.954 112.802 403.687 114.389 403.687 116.261C403.687 118.051 403.117 119.638 401.978 121.021C400.92 122.324 399.536 122.975 397.827 122.975C396.851 122.975 396.037 122.934 395.386 122.853H393.433C391.724 122.853 390.503 123.219 389.771 123.951C389.038 124.684 388.672 126.026 388.672 127.979C388.672 144.907 389.689 169.28 391.724 201.1C393.758 232.919 394.775 257.293 394.775 274.22V283.863C396.484 283.619 398.193 283.497 399.902 283.497C406.82 283.497 410.278 286.427 410.278 292.286ZM469.116 213.429C469.767 228.891 470.093 250.619 470.093 278.614V284.962H489.136C492.716 287.403 494.507 289.885 494.507 292.408C494.507 294.28 493.896 295.948 492.676 297.413C491.455 298.797 489.95 299.488 488.159 299.488C487.345 299.488 486.491 299.326 485.596 299L484.375 298.634C483.154 298.959 481.567 299.122 479.614 299.122L475.586 298.878C474.365 298.797 473.022 298.756 471.558 298.756C469.849 300.79 467.489 301.808 464.478 301.808C462.28 301.808 460.327 300.994 458.618 299.366C456.909 297.82 456.055 295.989 456.055 293.873C456.055 292.408 456.34 290.536 456.909 288.258C457.397 285.898 457.642 284.107 457.642 282.887C457.642 264.902 456.828 236.459 455.2 197.56C453.491 159.718 452.637 131.316 452.637 112.354C452.637 110.89 453.206 109.669 454.346 108.692C455.566 107.716 457.031 107.228 458.74 107.228C460.775 107.228 462.524 107.96 463.989 109.425C465.535 110.808 466.309 112.477 466.309 114.43C466.309 123.463 466.756 138.478 467.651 159.474C468.465 178.517 468.872 193.491 468.872 204.396L469.116 207.447C469.198 208.342 469.238 209.36 469.238 210.499C469.238 211.476 469.198 212.086 469.116 212.33V213.429ZM556.885 285.45C566.406 285.45 571.167 287.647 571.167 292.042V292.896C570.109 295.012 568.237 296.721 565.552 298.023C562.948 299.244 560.425 299.977 557.983 300.221C555.216 300.383 552.49 300.465 549.805 300.465H541.992C539.958 300.465 538.371 300.383 537.231 300.221C536.174 300.139 534.993 299.854 533.691 299.366C530.924 298.39 529.541 296.03 529.541 292.286V147.022C529.541 144.418 528.971 140.187 527.832 134.327C526.693 128.468 526.123 124.195 526.123 121.51V120.655C528.89 116.179 530.965 113.25 532.349 111.866C534.383 111.866 537.476 111.5 541.626 110.768C545.776 110.035 548.869 109.669 550.903 109.669C553.589 109.669 556.152 110.483 558.594 112.11C561.117 113.657 562.378 115.569 562.378 117.848C562.378 122.812 558.594 125.294 551.025 125.294C549.723 125.294 548.543 125.253 547.485 125.172C546.427 125.09 545.207 125.05 543.823 125.05C542.44 125.05 541.545 125.09 541.138 125.172C541.138 129.16 541.463 136.036 542.114 145.802C542.765 155.567 543.091 162.444 543.091 166.432C543.091 169.036 542.887 173.878 542.48 180.958C542.074 188.119 541.87 192.799 541.87 194.996C541.789 194.996 543.009 194.711 545.532 194.142C548.706 193.246 551.392 192.799 553.589 192.799C555.542 192.799 557.251 193.491 558.716 194.874C560.181 196.257 560.913 197.885 560.913 199.757C560.913 201.873 560.262 203.704 558.96 205.25C557.739 206.715 556.193 207.447 554.321 207.447C553.345 207.447 552.409 207.407 551.514 207.325C550.537 207.244 549.398 207.203 548.096 207.203C545.654 207.203 543.945 207.813 542.969 209.034V286.183L556.885 285.45Z" fill="#3C82F6"/>
<path d="M200.976 225.392C211.497 225.737 207.969 246.515 218.476 245.892C228.495 245.298 224.058 226.928 233.976 225.392C246.928 223.387 252.476 240.286 252.476 253.392C252.476 267.536 250.178 277.61 254.976 291.892C268.269 331.46 295.656 233.036 302.976 196.392C307.457 173.96 312.043 159.036 305.976 137.892C300.438 118.593 286.3 109.844 266.976 104.392C232.043 94.5361 200.976 94.5357 163.976 104.392C146.231 109.12 135.631 120.128 130.976 137.892C125.043 160.536 129.094 173.95 133.476 196.392C141.492 237.446 167.924 331.29 181.976 291.892C187.042 277.688 184.976 266.536 184.976 253.392C184.976 240.798 188.389 224.98 200.976 225.392Z" stroke="#3C82F6" stroke-width="10"/>
<g filter="url(#filter0_f_450_229)">
<path d="M178.543 119.536L258.097 151.036" stroke="#3C82F6" stroke-width="5" stroke-linecap="round" stroke-linejoin="round"/>
</g>
<g filter="url(#filter1_f_450_229)">
<path d="M258.097 119.536L178.543 151.036" stroke="#3C82F6" stroke-width="5" stroke-linecap="round" stroke-linejoin="round"/>
</g>
<defs>
<filter id="filter0_f_450_229" x="172.043" y="113.035" width="92.5549" height="44.502" filterUnits="userSpaceOnUse" color-interpolation-filters="sRGB">
<feFlood flood-opacity="0" result="BackgroundImageFix"/>
<feBlend mode="normal" in="SourceGraphic" in2="BackgroundImageFix" result="shape"/>
<feGaussianBlur stdDeviation="2" result="effect1_foregroundBlur_450_229"/>
</filter>
<filter id="filter1_f_450_229" x="172.043" y="113.035" width="92.5549" height="44.502" filterUnits="userSpaceOnUse" color-interpolation-filters="sRGB">
<feFlood flood-opacity="0" result="BackgroundImageFix"/>
<feBlend mode="normal" in="SourceGraphic" in2="BackgroundImageFix" result="shape"/>
<feGaussianBlur stdDeviation="2" result="effect1_foregroundBlur_450_229"/>
</filter>
</defs>
</svg>
